<?xml version="1.0" encoding="UTF-8"?>
<svg id="Capa_1" data-name="Capa 1" xmlns="http://www.w3.org/2000/svg" viewBox="0 0 986.46 433.7">
  <defs>
    <style>
      .cls-1 {
        fill: #ff375e;
      }

      .cls-2 {
        fill: #fff;
      }
    </style>
  </defs>
  <path class="cls-2" d="M369.95,245.56v58.1h-27.58v-161.19h27.58v12.89c4.22-5.12,9.42-9.08,15.6-11.87,6.18-2.79,13.04-4.18,20.57-4.18,10.4,0,19.74,2.6,28.03,7.8,8.29,5.2,14.77,12.43,19.44,21.7,4.67,9.27,7.01,19.78,7.01,31.54s-2.34,22.31-7.01,31.65c-4.67,9.35-11.16,16.66-19.44,21.93-8.29,5.27-17.63,7.91-28.03,7.91-15.53,0-27.58-5.43-36.17-16.28ZM382.61,230.41c5.27,3.77,11.53,5.65,18.76,5.65,9.19,0,16.58-3.2,22.16-9.61,5.57-6.4,8.36-15.11,8.36-26.11s-2.79-19.44-8.36-25.77c-5.58-6.33-12.96-9.5-22.16-9.5-7.39,0-13.72,1.81-18.99,5.43-5.28,3.62-9.42,8.67-12.43,15.15v29.62c3.17,6.33,7.38,11.38,12.66,15.15ZM568.67,258.44v-14.02c-4.67,5.58-10.36,9.87-17.07,12.89-6.71,3.01-14.06,4.52-22.04,4.52-12.96,0-23.21-4.11-30.75-12.32-7.54-8.21-11.3-19.18-11.3-32.89v-74.15h28.26v67.37c0,7.99,1.88,14.36,5.65,19.1,3.77,4.75,9.34,7.12,16.73,7.12,6.03,0,11.98-1.88,17.86-5.65,5.88-3.77,10.1-8.51,12.66-14.24v-73.7h28.26v115.98h-28.26ZM638.87,250.08c-5.65-5.57-8.48-13.34-8.48-23.29v-113.04h-19.44v-24.87h47.7v135.2c0,6.33,2.94,9.5,8.82,9.5h12.21v24.87h-15.37c-11.31,0-19.78-2.79-25.43-8.36ZM711.33,251.1c-9.35-7.16-14.62-16.69-15.83-28.6h28.94c1.2,4.97,3.92,8.78,8.14,11.42,4.22,2.64,9.72,3.96,16.5,3.96,7.23,0,12.92-1.24,17.07-3.73,4.14-2.49,6.22-5.91,6.22-10.29,0-3.17-.61-5.65-1.81-7.46-1.21-1.81-3.62-3.24-7.23-4.3-3.62-1.05-8.97-1.73-16.05-2.04-17.79-.75-30.33-3.92-37.64-9.5-7.31-5.57-10.97-13.79-10.97-24.64,0-11.45,4.33-20.42,13-26.9,8.67-6.48,20.69-9.72,36.06-9.72s26.23,3.09,34.82,9.27c8.59,6.18,13.79,14.62,15.6,25.32h-28.26c-3.32-7.38-10.78-11.08-22.38-11.08-6.63,0-11.83,1.06-15.6,3.17-3.77,2.11-5.65,5.05-5.65,8.82,0,2.71.6,4.86,1.81,6.44,1.2,1.58,3.54,2.79,7.01,3.62,3.47.83,8.66,1.39,15.6,1.7,12.36.45,22.15,2.07,29.39,4.86,7.24,2.79,12.4,6.75,15.49,11.87,3.09,5.13,4.63,11.61,4.63,19.44,0,12.21-4.48,21.78-13.45,28.71-8.97,6.93-21.36,10.4-37.19,10.4s-28.86-3.58-38.21-10.74ZM847.54,254.04c-9.27-5.2-16.47-12.51-21.59-21.93-5.13-9.42-7.69-20.23-7.69-32.44,0-11.45,2.6-21.78,7.8-30.97,5.2-9.19,12.4-16.39,21.59-21.59,9.19-5.2,19.52-7.8,30.97-7.8,13.87,0,25.28,2.98,34.25,8.93,8.97,5.96,15.45,13.42,19.44,22.38,3.99,8.97,5.99,18.28,5.99,27.92,0,3.02-.23,6.03-.68,9.04h-90.66c1.2,9.65,4.56,17,10.06,22.04,5.5,5.05,13.07,7.57,22.72,7.57,6.33,0,11.83-1.13,16.5-3.39,4.67-2.26,8.37-5.05,11.08-8.37h29.62c-2.11,6.63-6.03,12.74-11.75,18.31-5.73,5.58-12.63,9.99-20.69,13.23-8.06,3.24-16.47,4.86-25.21,4.86-11.91,0-22.49-2.6-31.76-7.8ZM907.79,185.65c-3.32-14.47-13.11-21.7-29.39-21.7-7.99,0-14.55,1.85-19.67,5.54-5.13,3.69-8.67,9.08-10.63,16.16h59.69Z"/>
  <path class="cls-2" d="M684.84,333.05c-.95,1.9-2.26,3.37-3.95,4.43-1.68,1.06-3.58,1.58-5.69,1.58-3.15,0-5.6-1.1-7.34-3.31v2.62h-5.6v-34.42h5.6v13.49c.86-1.04,1.91-1.84,3.17-2.41s2.65-.85,4.18-.85c2.11,0,4.01.53,5.69,1.58,1.68,1.06,3,2.52,3.95,4.41.95,1.88,1.42,4.02,1.42,6.4s-.48,4.57-1.42,6.47ZM670.43,332.71c1.07.75,2.34,1.12,3.81,1.12,1.87,0,3.37-.65,4.5-1.95,1.13-1.3,1.7-3.07,1.7-5.3s-.57-3.95-1.7-5.23c-1.13-1.28-2.63-1.93-4.5-1.93-1.5,0-2.78.37-3.85,1.1-1.07.74-1.91,1.76-2.52,3.08v6.01c.64,1.32,1.5,2.35,2.57,3.1ZM689.71,342.5h4.09c.76,0,1.34-.16,1.74-.48.4-.32.74-.85,1.01-1.58l.73-2.07-8.63-23.54h5.83l5.37,16.38h.14l5.14-16.38h5.74l-9.45,27.03c-.67,1.99-1.54,3.43-2.59,4.34-1.06.9-2.58,1.35-4.57,1.35h-4.54v-5.05ZM728.21,336.88c-1.9-1.45-2.97-3.39-3.21-5.81h5.87c.24,1.01.8,1.78,1.65,2.32.86.54,1.97.8,3.35.8,1.47,0,2.62-.25,3.47-.76.84-.51,1.26-1.2,1.26-2.09,0-.64-.12-1.15-.37-1.52-.24-.37-.73-.66-1.47-.87s-1.82-.35-3.26-.41c-3.61-.15-6.16-.8-7.64-1.93-1.48-1.13-2.23-2.8-2.23-5,0-2.32.88-4.15,2.64-5.46s4.2-1.97,7.32-1.97,5.32.63,7.07,1.88c1.74,1.25,2.8,2.97,3.17,5.14h-5.74c-.67-1.5-2.19-2.25-4.54-2.25-1.35,0-2.4.21-3.17.64s-1.15,1.03-1.15,1.79c0,.55.12.99.37,1.31.24.32.72.57,1.42.73.7.17,1.76.28,3.17.34,2.51.09,4.5.42,5.97.99,1.47.57,2.52,1.37,3.15,2.41.63,1.04.94,2.36.94,3.95,0,2.48-.91,4.42-2.73,5.83-1.82,1.41-4.34,2.11-7.55,2.11s-5.86-.73-7.76-2.18ZM755.91,337.46c-1.88-1.07-3.35-2.55-4.4-4.45-1.06-1.9-1.58-4.04-1.58-6.42s.53-4.52,1.58-6.4c1.05-1.88,2.52-3.35,4.4-4.41,1.88-1.06,4.05-1.58,6.5-1.58s4.62.53,6.52,1.58,3.37,2.52,4.41,4.41c1.04,1.88,1.56,4.02,1.56,6.4s-.52,4.53-1.56,6.42c-1.04,1.9-2.51,3.38-4.41,4.45-1.9,1.07-4.07,1.61-6.52,1.61s-4.61-.54-6.5-1.61ZM767.27,331.93c1.19-1.33,1.79-3.11,1.79-5.35s-.6-3.96-1.79-5.28-2.82-1.97-4.86-1.97-3.71.66-4.89,1.97c-1.18,1.32-1.77,3.07-1.77,5.28s.59,4.02,1.77,5.35c1.18,1.33,2.81,2,4.89,2s3.67-.67,4.86-2ZM782.3,336.68c-1.15-1.13-1.72-2.71-1.72-4.73v-22.95h-3.95v-5.05h9.68v27.45c0,1.28.6,1.93,1.79,1.93h2.48v5.05h-3.12c-2.29,0-4.01-.57-5.16-1.7ZM811.56,338.37v-2.84c-.95,1.13-2.1,2-3.47,2.61-1.36.61-2.85.92-4.47.92-2.63,0-4.71-.83-6.24-2.5-1.53-1.67-2.29-3.89-2.29-6.68v-15.05h5.74v13.68c0,1.62.38,2.91,1.15,3.88s1.9,1.45,3.4,1.45c1.22,0,2.43-.38,3.62-1.15s2.05-1.73,2.57-2.89v-14.96h5.74v23.54h-5.74ZM838.5,319.88h-7.53v11.29c0,1.44.69,2.16,2.07,2.16h5.46v5.05h-5.92c-2.45,0-4.29-.57-5.51-1.72-1.22-1.15-1.84-2.73-1.84-4.75v-12.02h-4.27v-5.05h4.27v-7.76h5.74v7.76h7.53v5.05ZM845.75,319.88h-4.82v-5.05h10.56v23.54h-5.74v-18.49ZM845.61,310.47v-6.52h5.74v6.52h-5.74ZM863.16,337.46c-1.88-1.07-3.35-2.55-4.4-4.45-1.06-1.9-1.58-4.04-1.58-6.42s.53-4.52,1.58-6.4c1.05-1.88,2.52-3.35,4.4-4.41,1.88-1.06,4.05-1.58,6.5-1.58s4.62.53,6.52,1.58,3.37,2.52,4.41,4.41c1.04,1.88,1.56,4.02,1.56,6.4s-.52,4.53-1.56,6.42c-1.04,1.9-2.51,3.38-4.41,4.45-1.9,1.07-4.07,1.61-6.52,1.61s-4.61-.54-6.5-1.61ZM874.52,331.93c1.19-1.33,1.79-3.11,1.79-5.35s-.6-3.96-1.79-5.28-2.82-1.97-4.86-1.97-3.71.66-4.89,1.97c-1.18,1.32-1.77,3.07-1.77,5.28s.59,4.02,1.77,5.35c1.18,1.33,2.81,2,4.89,2s3.67-.67,4.86-2ZM904.81,338.37v-13.63c0-1.62-.4-2.91-1.19-3.88-.8-.96-2.01-1.45-3.63-1.45-1.28,0-2.55.38-3.79,1.15-1.24.77-2.12,1.73-2.64,2.89v14.91h-5.74v-23.54h5.74v2.94c.98-1.16,2.16-2.05,3.56-2.66,1.39-.61,2.93-.92,4.61-.92,2.72,0,4.87.83,6.45,2.5,1.58,1.67,2.36,3.88,2.36,6.63v15.05h-5.74ZM918.81,336.88c-1.9-1.45-2.97-3.39-3.21-5.81h5.87c.24,1.01.8,1.78,1.65,2.32.86.54,1.97.8,3.35.8,1.47,0,2.62-.25,3.47-.76.84-.51,1.26-1.2,1.26-2.09,0-.64-.12-1.15-.37-1.52-.24-.37-.73-.66-1.47-.87s-1.82-.35-3.26-.41c-3.61-.15-6.16-.8-7.64-1.93-1.48-1.13-2.23-2.8-2.23-5,0-2.32.88-4.15,2.64-5.46s4.2-1.97,7.32-1.97,5.32.63,7.07,1.88c1.74,1.25,2.8,2.97,3.17,5.14h-5.74c-.67-1.5-2.19-2.25-4.54-2.25-1.35,0-2.4.21-3.17.64s-1.15,1.03-1.15,1.79c0,.55.12.99.37,1.31.24.32.72.57,1.42.73.7.17,1.76.28,3.17.34,2.51.09,4.5.42,5.97.99,1.47.57,2.52,1.37,3.15,2.41.63,1.04.94,2.36.94,3.95,0,2.48-.91,4.42-2.73,5.83-1.82,1.41-4.34,2.11-7.55,2.11s-5.86-.73-7.76-2.18Z"/>
  <g>
    <path class="cls-2" d="M199.23,142.47h41.76l57.99,57.99-57.99,57.99h-41.76l57.99-57.99-57.99-57.99ZM111.59,200.46l57.99-57.99h-41.76l-57.99,57.99,57.99,57.99h41.76l-57.99-57.99Z"/>
    <rect class="cls-1" x="162.49" y="178.55" width="43.83" height="43.83" transform="translate(-87.74 189.1) rotate(-45)"/>
  </g>
</svg>
